<svg xmlns="http://www.w3.org/2000/svg" width="280" height="280" viewBox="0 0 280 280">
  <title>Asset 2</title>
  <g id="Layer_2" data-name="Layer 2">
    <g id="Layer_1-2" data-name="Layer 1">
      <g>
        <rect width="280" height="280" style="fill: #96588a"/>
        <g>
          <path d="M198.79933,115.9086v73.3557a3.18768,3.18768,0,0,1-3.17834,3.17835H74.844a3.18775,3.18775,0,0,1-3.17835-3.17835V100.27072A3.18768,3.18768,0,0,1,74.844,97.09238H179.98311a21.06418,21.06418,0,0,1,.27353-7.94585H74.844a11.13682,11.13682,0,0,0-11.1242,11.12419V189.2643A11.13682,11.13682,0,0,0,74.844,200.3885H195.621a11.13682,11.13682,0,0,0,11.12419-11.1242V115.63507a21.06418,21.06418,0,0,1-7.94585.27353Z" style="fill: #fc0"/>
          <circle cx="201.97767" cy="93.91404" r="14.30254" style="fill: #fc0"/>
        </g>
      </g>
    </g>
  </g>
</svg>
